<svg xmlns="http://www.w3.org/2000/svg" width="20" height="22" viewBox="0 0 20 22">
    <path fill="#7F7F7F" fill-rule="nonzero" d="M8.531 13.59v2.09c-3.534 0-6.398 2.809-6.398 6.273H0c0-4.619 3.82-8.363 8.531-8.363zm0-1.045c-3.535 0-6.398-2.807-6.398-6.273C2.133 2.807 4.996 0 8.53 0c3.535 0 6.398 2.807 6.398 6.272 0 3.466-2.863 6.273-6.398 6.273zm0-2.091c2.357 0 4.266-1.871 4.266-4.182 0-2.31-1.91-4.181-4.266-4.181-2.357 0-4.265 1.871-4.265 4.181s1.908 4.182 4.265 4.182zm6.398 9.93L11.795 22l.598-3.42-2.534-2.424 3.504-.5 1.566-3.111 1.568 3.112 3.503.5-2.535 2.423.597 3.42-3.133-1.615z"/>
</svg>
