<svg width="16" height="16" viewBox="0 0 16 16" fill="none" xmlns="http://www.w3.org/2000/svg">
<path d="M14.5717 2.14509H11.5717V1.00223C11.5717 0.923661 11.5074 0.859375 11.4288 0.859375H10.4288C10.3503 0.859375 10.286 0.923661 10.286 1.00223V2.14509H5.71453V1.00223C5.71453 0.923661 5.65025 0.859375 5.57168 0.859375H4.57168C4.49311 0.859375 4.42882 0.923661 4.42882 1.00223V2.14509H1.42882C1.11275 2.14509 0.857391 2.40045 0.857391 2.71652V14.5737C0.857391 14.8897 1.11275 15.1451 1.42882 15.1451H14.5717C14.8878 15.1451 15.1431 14.8897 15.1431 14.5737V2.71652C15.1431 2.40045 14.8878 2.14509 14.5717 2.14509ZM13.8574 13.8594H2.14311V7.07366H13.8574V13.8594ZM2.14311 5.85937V3.4308H4.42882V4.28795C4.42882 4.36652 4.49311 4.4308 4.57168 4.4308H5.57168C5.65025 4.4308 5.71453 4.36652 5.71453 4.28795V3.4308H10.286V4.28795C10.286 4.36652 10.3503 4.4308 10.4288 4.4308H11.4288C11.5074 4.4308 11.5717 4.36652 11.5717 4.28795V3.4308H13.8574V5.85937H2.14311Z" fill="#757575"/>
</svg>
