<svg width="16" height="16" viewBox="0 0 16 16" fill="none" xmlns="http://www.w3.org/2000/svg">
<path d="M11.7862 2.75495V1.37459C11.7862 1.25495 11.6487 1.18888 11.5558 1.26209L3.5058 7.54959C3.43741 7.60278 3.38206 7.67089 3.34399 7.74872C3.30592 7.82655 3.28613 7.91205 3.28613 7.9987C3.28613 8.08534 3.30592 8.17084 3.34399 8.24867C3.38206 8.32651 3.43741 8.39461 3.5058 8.4478L11.5558 14.7353C11.6504 14.8085 11.7862 14.7424 11.7862 14.6228V13.2424C11.7862 13.1549 11.7451 13.071 11.6772 13.0174L5.24866 7.99959L11.6772 2.97995C11.7451 2.92638 11.7862 2.84245 11.7862 2.75495Z" fill="black" fill-opacity="0.85"/>
</svg>
