<svg width="20" height="21" viewBox="0 0 20 21" fill="none" xmlns="http://www.w3.org/2000/svg">
<path d="M11.1562 10.0654L17.0155 3.08099C17.1137 2.96491 17.0312 2.78857 16.8794 2.78857H15.0981C14.9932 2.78857 14.8928 2.83545 14.8236 2.91581L9.99097 8.67697L5.15838 2.91581C5.09142 2.83545 4.99097 2.78857 4.88383 2.78857H3.10258C2.95079 2.78857 2.8682 2.96491 2.96642 3.08099L8.82579 10.0654L2.96642 17.0497C2.94442 17.0756 2.9303 17.1072 2.92575 17.1409C2.9212 17.1746 2.9264 17.2088 2.94073 17.2396C2.95507 17.2704 2.97794 17.2964 3.00663 17.3146C3.03532 17.3328 3.06862 17.3423 3.10258 17.3421H4.88383C4.98874 17.3421 5.08919 17.2953 5.15838 17.2149L9.99097 11.4538L14.8236 17.2149C14.8905 17.2953 14.991 17.3421 15.0981 17.3421H16.8794C17.0312 17.3421 17.1137 17.1658 17.0155 17.0497L11.1562 10.0654Z" fill="#9E9E9E"/>
</svg>
