<svg width="17" height="16" viewBox="0 0 17 16" fill="none" xmlns="http://www.w3.org/2000/svg">
<path d="M4.12532 12.284C4.16104 12.284 4.19675 12.2805 4.23247 12.2751L7.23604 11.7483C7.27175 11.7412 7.30568 11.7251 7.33068 11.6983L14.9003 4.12868C14.9169 4.11216 14.93 4.09254 14.939 4.07094C14.9479 4.04934 14.9525 4.02618 14.9525 4.00279C14.9525 3.9794 14.9479 3.95625 14.939 3.93464C14.93 3.91304 14.9169 3.89342 14.9003 3.8769L11.9325 0.907254C11.8985 0.873326 11.8539 0.855469 11.8057 0.855469C11.7575 0.855469 11.7128 0.873326 11.6789 0.907254L4.10925 8.4769C4.08247 8.50368 4.06639 8.53583 4.05925 8.57154L3.53247 11.5751C3.51509 11.6708 3.5213 11.7692 3.55055 11.862C3.5798 11.9547 3.63121 12.0389 3.70032 12.1073C3.81818 12.2215 3.96639 12.284 4.12532 12.284ZM5.32889 9.16975L11.8057 2.69475L13.1146 4.00368L6.63782 10.4787L5.05032 10.759L5.32889 9.16975ZM15.2378 13.784H2.09497C1.77889 13.784 1.52354 14.0394 1.52354 14.3555V14.9983C1.52354 15.0769 1.58782 15.1412 1.66639 15.1412H15.6664C15.745 15.1412 15.8093 15.0769 15.8093 14.9983V14.3555C15.8093 14.0394 15.5539 13.784 15.2378 13.784Z" fill="#0F74EB"/>
</svg>
