<svg width="13" height="16" viewBox="0 0 13 16" fill="none" xmlns="http://www.w3.org/2000/svg">
<path d="M12.6175 4.01071L8.77461 0.167857C8.66747 0.0607143 8.52283 0 8.37104 0H0.785326C0.469255 0 0.213898 0.255357 0.213898 0.571429V15.4286C0.213898 15.7446 0.469255 16 0.785326 16H12.2139C12.53 16 12.7853 15.7446 12.7853 15.4286V4.41607C12.7853 4.26429 12.7246 4.11786 12.6175 4.01071ZM11.4675 4.67857H8.10676V1.31786L11.4675 4.67857ZM11.4996 14.7143H1.49961V1.28571H6.89247V5.14286C6.89247 5.34177 6.97149 5.53254 7.11214 5.67319C7.25279 5.81384 7.44356 5.89286 7.64247 5.89286H11.4996V14.7143ZM6.53711 9.21607L5.43354 7.3875C5.39426 7.32322 5.32461 7.28393 5.24961 7.28393H4.5639C4.52283 7.28393 4.48354 7.29464 4.44961 7.31786C4.34961 7.38036 4.31926 7.5125 4.38354 7.61429L5.85318 9.94286L4.3639 12.3143C4.34366 12.3468 4.33249 12.3842 4.33152 12.4224C4.33056 12.4607 4.33984 12.4986 4.35841 12.5321C4.37699 12.5656 4.40417 12.5935 4.43716 12.613C4.47014 12.6325 4.50774 12.6428 4.54604 12.6429H5.16211C5.23711 12.6429 5.30497 12.6036 5.34426 12.5411L6.4639 10.7286L7.5764 12.5393C7.61568 12.6036 7.68533 12.6411 7.75854 12.6411H8.42818C8.46926 12.6411 8.50854 12.6286 8.54426 12.6071C8.64426 12.5429 8.67283 12.4107 8.60854 12.3107L7.10854 9.98214L8.63176 7.61607C8.65238 7.58364 8.66393 7.54628 8.66521 7.50787C8.66649 7.46947 8.65745 7.43142 8.63903 7.39769C8.62062 7.36396 8.5935 7.33578 8.5605 7.31609C8.5275 7.29639 8.48983 7.28591 8.4514 7.28571H7.8139C7.7389 7.28571 7.66926 7.325 7.62997 7.38929L6.53711 9.21607Z" fill="#201D1D"/>
</svg>
