<svg width="16" height="16" viewBox="0 0 16 16" fill="none" xmlns="http://www.w3.org/2000/svg">
<path d="M15.7313 6.2154H11.1599C11.0813 6.2154 11.017 6.27969 11.017 6.35826V7.2154C11.017 7.29397 11.0813 7.35826 11.1599 7.35826H15.7313C15.8099 7.35826 15.8742 7.29397 15.8742 7.2154V6.35826C15.8742 6.27969 15.8099 6.2154 15.7313 6.2154ZM13.3385 8.64397H11.1599C11.0813 8.64397 11.017 8.70826 11.017 8.78683V9.64397C11.017 9.72255 11.0813 9.78683 11.1599 9.78683H13.3385C13.417 9.78683 13.4813 9.72255 13.4813 9.64397V8.78683C13.4813 8.70826 13.417 8.64397 13.3385 8.64397ZM7.37953 4.61719H6.60631C6.4956 4.61719 6.40631 4.70647 6.40631 4.81719V9.24576C6.40631 9.31005 6.43667 9.36897 6.48845 9.40647L9.14738 11.3458C9.23667 11.41 9.36167 11.3922 9.42595 11.3029L9.88488 10.6761V10.6743C9.94917 10.585 9.92953 10.46 9.84024 10.3958L7.57774 8.76005V4.81719C7.57953 4.70647 7.48845 4.61719 7.37953 4.61719Z" fill="#757575"/>
<path d="M13.2283 10.8876H12.1962C12.0962 10.8876 12.0015 10.9394 11.948 11.0251C11.7209 11.3851 11.4543 11.7187 11.1533 12.0197C10.6351 12.5397 10.0207 12.9539 9.34441 13.2394C8.64262 13.5358 7.89798 13.6858 7.13012 13.6858C6.36048 13.6858 5.61584 13.5358 4.91583 13.2394C4.23905 12.9537 3.63012 12.543 3.10691 12.0197C2.58369 11.4965 2.17298 10.8876 1.88726 10.2108C1.59084 9.51081 1.44084 8.76617 1.44084 7.99653C1.44084 7.22689 1.59084 6.48403 1.88726 5.78224C2.17298 5.10546 2.58369 4.49653 3.10691 3.97331C3.63012 3.4501 4.23905 3.03938 4.91583 2.75367C5.61584 2.45724 6.36226 2.30724 7.13012 2.30724C7.89976 2.30724 8.64441 2.45724 9.34441 2.75367C10.0212 3.03938 10.6301 3.4501 11.1533 3.97331C11.4543 4.27433 11.7209 4.60793 11.948 4.96796C12.0015 5.05367 12.0962 5.10546 12.1962 5.10546H13.2283C13.3515 5.10546 13.4301 4.97688 13.3748 4.86796C12.2105 2.55188 9.84976 1.04653 7.21405 1.01617C3.35512 0.967955 0.149764 4.12688 0.142621 7.98224C0.135478 11.8447 3.26584 14.9787 7.12834 14.9787C9.79798 14.9787 12.198 13.468 13.3748 11.1251C13.3873 11.1001 13.3933 11.0723 13.392 11.0444C13.3908 11.0165 13.3825 10.9893 13.3678 10.9655C13.3531 10.9417 13.3326 10.922 13.3082 10.9084C13.2838 10.8948 13.2563 10.8876 13.2283 10.8876Z" fill="#757575"/>
</svg>
