<svg width="16" height="16" viewBox="0 0 16 16" fill="none" xmlns="http://www.w3.org/2000/svg">
<g clip-path="url(#clip0)">
<path d="M15.4286 6.78348H13.5V4.75491C13.5 4.43884 13.2446 4.18348 12.9286 4.18348H7.30357L5.20893 2.17991C5.18228 2.15496 5.14722 2.14094 5.11071 2.14062H0.571429C0.255357 2.14062 0 2.39598 0 2.71205V13.2835C0 13.5996 0.255357 13.8549 0.571429 13.8549H13.0357C13.2679 13.8549 13.4786 13.7138 13.5661 13.4978L15.9589 7.5692C15.9857 7.50134 16 7.42812 16 7.35491C16 7.03884 15.7446 6.78348 15.4286 6.78348ZM1.28571 3.42634H4.65179L6.7875 5.4692H12.2143V6.78348H3.10714C2.875 6.78348 2.66429 6.92455 2.57679 7.14062L1.28571 10.3406V3.42634ZM12.6304 12.5692H1.69643L3.54107 7.99777H14.4768L12.6304 12.5692Z" fill="#C60808"/>
</g>
<defs>
<clipPath id="clip0">
<rect width="16" height="16" fill="white"/>
</clipPath>
</defs>
</svg>
