<svg width="30" height="30" viewBox="0 0 36 36" fill="none" transform="rotate(90)" xmlns="http://www.w3.org/2000/svg">
<path d="M28.8481 21.535C28.942 21.535 29.0188 21.5947 29.0188 21.6715L29.0188 29.0058L21.661 29.0058C21.5841 29.0058 21.5244 28.929 21.5244 28.8351L21.5244 26.7863C21.5244 26.6924 21.5841 26.6156 21.661 26.6156L26.6281 26.6156L26.6281 21.6758C26.6281 21.5947 26.705 21.535 26.7989 21.535L28.8481 21.535Z" fill="#757575"/>
<path d="M27.1869 28.8397C27.0951 28.9314 26.9465 28.9314 26.8547 28.8397L20.0688 22.0538C19.9771 21.9621 19.9771 21.8134 20.0688 21.7217L21.7217 20.0688C21.8134 19.9771 21.9621 19.9771 22.0538 20.0688L28.8397 26.8547C28.9314 26.9465 28.9314 27.0951 28.8397 27.1869L27.1869 28.8397Z" fill="#757575"/>
<path d="M7.17073 14.4708C7.07681 14.4708 6.99997 14.4111 6.99997 14.3342L6.99997 7L14.3578 7C14.4347 7 14.4944 7.07683 14.4944 7.17073L14.4944 9.21946C14.4944 9.31336 14.4347 9.39019 14.3578 9.39019L9.39065 9.39019L9.39065 14.33C9.39065 14.4111 9.31381 14.4708 9.21989 14.4708L7.17073 14.4708Z" fill="#757575"/>
<path d="M8.83194 7.16606C8.92365 7.07435 9.07234 7.07435 9.16405 7.16606L15.95 13.952C16.0417 14.0437 16.0417 14.1924 15.95 14.2841L14.2971 15.937C14.2054 16.0287 14.0567 16.0287 13.965 15.937L7.17907 9.15104C7.08736 9.05933 7.08736 8.91064 7.17907 8.81893L8.83194 7.16606Z" fill="#757575"/>
<rect x="3" y="3" width="30" height="30" stroke="#757575" stroke-width="3" stroke-linejoin="round"/>
</svg>
