<svg width="14" height="15" viewBox="0 0 14 15" fill="none" xmlns="http://www.w3.org/2000/svg">
<path d="M12.7144 6.8476H11.5001V2.8476C11.5001 1.5851 10.4769 0.56189 9.21442 0.56189H4.78585C3.52335 0.56189 2.50013 1.5851 2.50013 2.8476V6.8476H1.28585C0.969774 6.8476 0.714417 7.10296 0.714417 7.41903V14.2762C0.714417 14.5922 0.969774 14.8476 1.28585 14.8476H12.7144C13.0305 14.8476 13.2858 14.5922 13.2858 14.2762V7.41903C13.2858 7.10296 13.0305 6.8476 12.7144 6.8476ZM3.78585 2.8476C3.78585 2.29582 4.23406 1.8476 4.78585 1.8476H9.21442C9.7662 1.8476 10.2144 2.29582 10.2144 2.8476V6.8476H3.78585V2.8476ZM12.0001 13.5619H2.00013V8.13332H12.0001V13.5619ZM6.50013 11.0797V12.0262C6.50013 12.1047 6.56442 12.169 6.64299 12.169H7.35727C7.43585 12.169 7.50013 12.1047 7.50013 12.0262V11.0797C7.64754 10.9739 7.75756 10.824 7.81436 10.6517C7.87117 10.4794 7.87182 10.2934 7.81624 10.1207C7.76065 9.94796 7.65168 9.79732 7.50503 9.69045C7.35837 9.58359 7.18159 9.52601 7.00013 9.52601C6.81867 9.52601 6.64189 9.58359 6.49523 9.69045C6.34858 9.79732 6.23961 9.94796 6.18403 10.1207C6.12844 10.2934 6.12909 10.4794 6.1859 10.6517C6.2427 10.824 6.35273 10.9739 6.50013 11.0797Z" fill="black" fill-opacity="0.85"/>
</svg>
