<svg width="20" height="20" viewBox="0 0 20 20" fill="none" xmlns="http://www.w3.org/2000/svg">
<path d="M18.214 1.07422H1.78539C1.3903 1.07422 1.07111 1.39342 1.07111 1.7885V18.2171C1.07111 18.6122 1.3903 18.9314 1.78539 18.9314H18.214C18.6091 18.9314 18.9283 18.6122 18.9283 18.2171V1.7885C18.9283 1.39342 18.6091 1.07422 18.214 1.07422ZM17.3211 17.3242H2.67825V2.68136H17.3211V17.3242ZM9.55325 7.50279H13.6604C13.7586 7.50279 13.839 7.42243 13.839 7.32422V6.25279C13.839 6.15458 13.7586 6.07422 13.6604 6.07422H9.55325C9.45504 6.07422 9.37468 6.15458 9.37468 6.25279V7.32422C9.37468 7.42243 9.45504 7.50279 9.55325 7.50279ZM9.55325 10.7171H13.6604C13.7586 10.7171 13.839 10.6367 13.839 10.5385V9.46708C13.839 9.36886 13.7586 9.28851 13.6604 9.28851H9.55325C9.45504 9.28851 9.37468 9.36886 9.37468 9.46708V10.5385C9.37468 10.6367 9.45504 10.7171 9.55325 10.7171ZM9.55325 13.9314H13.6604C13.7586 13.9314 13.839 13.851 13.839 13.7528V12.6814C13.839 12.5831 13.7586 12.5028 13.6604 12.5028H9.55325C9.45504 12.5028 9.37468 12.5831 9.37468 12.6814V13.7528C9.37468 13.851 9.45504 13.9314 9.55325 13.9314ZM6.16039 6.78851C6.16039 7.02531 6.25446 7.25241 6.4219 7.41985C6.58935 7.58729 6.81645 7.68136 7.05325 7.68136C7.29005 7.68136 7.51715 7.58729 7.68459 7.41985C7.85204 7.25241 7.94611 7.02531 7.94611 6.78851C7.94611 6.5517 7.85204 6.3246 7.68459 6.15716C7.51715 5.98972 7.29005 5.89565 7.05325 5.89565C6.81645 5.89565 6.58935 5.98972 6.4219 6.15716C6.25446 6.3246 6.16039 6.5517 6.16039 6.78851ZM6.16039 10.0028C6.16039 10.2396 6.25446 10.4667 6.4219 10.6341C6.58935 10.8016 6.81645 10.8956 7.05325 10.8956C7.29005 10.8956 7.51715 10.8016 7.68459 10.6341C7.85204 10.4667 7.94611 10.2396 7.94611 10.0028C7.94611 9.76599 7.85204 9.53889 7.68459 9.37145C7.51715 9.204 7.29005 9.10993 7.05325 9.10993C6.81645 9.10993 6.58935 9.204 6.4219 9.37145C6.25446 9.53889 6.16039 9.76599 6.16039 10.0028ZM6.16039 13.2171C6.16039 13.4539 6.25446 13.681 6.4219 13.8484C6.58935 14.0159 6.81645 14.1099 7.05325 14.1099C7.29005 14.1099 7.51715 14.0159 7.68459 13.8484C7.85204 13.681 7.94611 13.4539 7.94611 13.2171C7.94611 12.9803 7.85204 12.7532 7.68459 12.5857C7.51715 12.4183 7.29005 12.3242 7.05325 12.3242C6.81645 12.3242 6.58935 12.4183 6.4219 12.5857C6.25446 12.7532 6.16039 12.9803 6.16039 13.2171Z" fill="#E0E0E0"/>
</svg>
