<svg width="21" height="20" viewBox="0 0 21 20" fill="none" xmlns="http://www.w3.org/2000/svg">
<path d="M13.2007 1.06408C12.3783 0.412508 11.3323 0.0244141 10.197 0.0244141C9.05896 0.0244141 8.01621 0.412508 7.19064 1.06408H13.2007Z" fill="#C60808"/>
<path d="M14.105 2.00026C13.9219 1.74893 13.7138 1.51713 13.4854 1.30697H6.90639C6.67804 1.51713 6.46939 1.74893 6.28628 2.00026H14.105Z" fill="#C60808"/>
<path d="M14.632 2.91743C14.5362 2.69355 14.4233 2.48129 14.294 2.27695H6.09732C5.96798 2.48129 5.85513 2.69355 5.75932 2.91743H14.632Z" fill="#C60808"/>
<path d="M14.9226 3.80873C14.8774 3.61019 14.8236 3.41483 14.756 3.22474H5.6353C5.5677 3.41483 5.51447 3.61019 5.46923 3.80873H14.9226Z" fill="#C60808"/>
<path d="M15.0269 4.68366C15.0211 4.50466 15.0067 4.32566 14.9812 4.15247H5.41014C5.38459 4.32566 5.37022 4.50466 5.3649 4.68366H15.0269Z" fill="#C60808"/>
<path d="M14.9758 5.53641C14.9982 5.37959 15.0152 5.22013 15.0237 5.06119H5.36756C5.37608 5.22013 5.39311 5.37959 5.41866 5.53641H14.9758Z" fill="#C60808"/>
<path d="M14.7677 6.37174C14.8151 6.23234 14.8577 6.09241 14.8944 5.94721H5.49744C5.53416 6.09241 5.57622 6.23234 5.62412 6.37174H14.7677Z" fill="#C60808"/>
<path d="M14.3951 7.1907C14.4659 7.06767 14.5308 6.94517 14.5899 6.81633H5.8019C5.86099 6.94517 5.92539 7.06767 5.99619 7.1907H14.3951Z" fill="#C60808"/>
<path d="M13.8176 7.99012C13.9107 7.88663 13.998 7.77785 14.08 7.66591H6.31183C6.39327 7.77785 6.48323 7.88663 6.57372 7.99012H13.8176Z" fill="#C60808"/>
<path d="M12.9217 8.77581C13.0484 8.68921 13.1698 8.59681 13.288 8.50177H7.10334C7.22151 8.59681 7.34287 8.68921 7.46955 8.77581H12.9217Z" fill="#C60808"/>
<path d="M10.197 9.61114C10.7804 9.61114 11.3409 9.50765 11.862 9.32073H8.52933C9.05044 9.50765 9.61147 9.61114 10.197 9.61114Z" fill="#C60808"/>
<path d="M0 7.84227C6.1596 7.64374 9.65884 10.8948 9.65884 15.4056V19.9756H0V7.84227Z" fill="#C60808"/>
<path d="M20.4057 7.84227C14.2461 7.64374 10.7463 10.8948 10.7463 15.4056V19.9756H20.4057V7.84227Z" fill="#C60808"/>
</svg>
