<svg width="36" height="36" viewBox="0 0 36 36" fill="none" transform="rotate(90)" xmlns="http://www.w3.org/2000/svg">
<path d="M20.1707 27.4708C20.0768 27.4708 20 27.4111 20 27.3343L20 20L27.3578 20C27.4347 20 27.4944 20.0768 27.4944 20.1707L27.4944 22.2195C27.4944 22.3134 27.4347 22.3902 27.3578 22.3902L22.3907 22.3902L22.3907 27.33C22.3907 27.4111 22.3138 27.4708 22.2199 27.4708L20.1707 27.4708Z" fill="#222222"/>
<path d="M21.8319 20.1661C21.9237 20.0744 22.0723 20.0744 22.1641 20.1661L28.95 26.952C29.0417 27.0437 29.0417 27.1924 28.95 27.2841L27.2971 28.937C27.2054 29.0287 27.0567 29.0287 26.965 28.937L20.1791 22.151C20.0874 22.0593 20.0874 21.9106 20.1791 21.8189L21.8319 20.1661Z" fill="#222222"/>
<path d="M15.8481 8.53495C15.942 8.53495 16.0188 8.59471 16.0188 8.67153L16.0188 16.0058L8.66099 16.0058C8.58414 16.0058 8.52437 15.929 8.52437 15.8351L8.52437 13.7863C8.52437 13.6924 8.58414 13.6156 8.66098 13.6156L13.6281 13.6156L13.6281 8.6758C13.6281 8.59471 13.705 8.53495 13.7989 8.53495L15.8481 8.53495Z" fill="#222222"/>
<path d="M14.1869 15.8397C14.0951 15.9314 13.9465 15.9314 13.8547 15.8397L7.06878 9.05376C6.97707 8.96205 6.97707 8.81336 7.06878 8.72165L8.72165 7.06878C8.81336 6.97707 8.96206 6.97707 9.05377 7.06878L15.8397 13.8547C15.9314 13.9465 15.9314 14.0951 15.8397 14.1869L14.1869 15.8397Z" fill="#222222"/>
<rect x="3" y="3" width="30" height="30" stroke="black" stroke-width="3" stroke-linejoin="round"/>
</svg>
