<?xml version="1.0" standalone="no"?>
<!DOCTYPE svg PUBLIC "-//W3C//DTD SVG 20010904//EN"
 "http://www.w3.org/TR/2001/REC-SVG-20010904/DTD/svg10.dtd">
<svg version="1.0" xmlns="http://www.w3.org/2000/svg"
 width="20.000000pt" height="20.000000pt" viewBox="0 0 20.000000 20.000000"
 preserveAspectRatio="xMidYMid meet">

<g transform="translate(0.000000,20.000000) scale(0.100000,-0.100000)"
fill="#000000" stroke="none">
<path d="M12 188 c-14 -14 -17 -155 -4 -176 6 -9 33 -12 98 -10 l89 3 0 95 0
95 -85 3 c-58 2 -89 -1 -98 -10z m173 -88 l0 -85 -85 0 -85 0 -3 74 c-2 41 -1
80 2 88 4 11 25 13 88 11 l83 -3 0 -85z"/>
<path d="M144 148 l-19 -23 23 19 c21 18 27 26 19 26 -2 0 -12 -10 -23 -22z"/>
<path d="M113 140 c1 -19 8 -26 27 -27 21 -2 22 -1 6 5 -11 5 -23 17 -28 28
-6 16 -7 15 -5 -6z"/>
<path d="M50 80 c12 -7 11 -12 -5 -32 l-20 -23 27 23 c24 22 27 22 31 5 4 -15
5 -15 6 3 1 21 -16 34 -42 34 -7 0 -6 -4 3 -10z"/>
</g>
</svg>
