<svg width="16" height="16" viewBox="0 0 16 16" fill="none" xmlns="http://www.w3.org/2000/svg">
<path d="M4.71415 8.57059H11.2856C11.3641 8.57059 11.4284 8.50631 11.4284 8.42773V7.57059C11.4284 7.49202 11.3641 7.42773 11.2856 7.42773H4.71415C4.63557 7.42773 4.57129 7.49202 4.57129 7.57059V8.42773C4.57129 8.50631 4.63557 8.57059 4.71415 8.57059Z" fill="#C60808"/>
<path d="M14.5717 0.857422H1.42882C1.11275 0.857422 0.857391 1.11278 0.857391 1.42885V14.5717C0.857391 14.8878 1.11275 15.1431 1.42882 15.1431H14.5717C14.8878 15.1431 15.1431 14.8878 15.1431 14.5717V1.42885C15.1431 1.11278 14.8878 0.857422 14.5717 0.857422ZM13.8574 13.8574H2.14311V2.14314H13.8574V13.8574Z" fill="#C60808"/>
</svg>
