<svg width="14" height="14" viewBox="0 0 14 14" fill="none" xmlns="http://www.w3.org/2000/svg">
<path d="M7.71842 1.62402H6.78091C6.69758 1.62402 6.65591 1.66569 6.65591 1.74902V6.65527H2.00003C1.9167 6.65527 1.87503 6.69694 1.87503 6.78027V7.71777C1.87503 7.80111 1.9167 7.84277 2.00003 7.84277H6.65591V12.749C6.65591 12.8324 6.69758 12.874 6.78091 12.874H7.71842C7.80175 12.874 7.84342 12.8324 7.84342 12.749V7.84277H12.5C12.5834 7.84277 12.625 7.80111 12.625 7.71777V6.78027C12.625 6.69694 12.5834 6.65527 12.5 6.65527H7.84342V1.74902C7.84342 1.66569 7.80175 1.62402 7.71842 1.62402Z" fill="white"/>
</svg>
