<svg width="20" height="20" viewBox="0 0 20 20" fill="none" xmlns="http://www.w3.org/2000/svg">
<path d="M13.6521 6.89404H12.7361C12.5369 6.89404 12.3474 6.98975 12.2302 7.15381L9.15992 11.4116L7.76929 9.48193C7.6521 9.31982 7.4646 9.22217 7.26343 9.22217H6.34742C6.22046 9.22217 6.14624 9.3667 6.22046 9.47021L8.65406 12.8452C8.71155 12.9255 8.78733 12.9908 8.87514 13.0359C8.96294 13.081 9.06023 13.1046 9.15894 13.1046C9.25765 13.1046 9.35494 13.081 9.44274 13.0359C9.53054 12.9908 9.60633 12.9255 9.66382 12.8452L13.7771 7.14209C13.8533 7.03857 13.7791 6.89404 13.6521 6.89404Z" fill="#E0E0E0"/>
<path d="M10 1.25C5.16797 1.25 1.25 5.16797 1.25 10C1.25 14.832 5.16797 18.75 10 18.75C14.832 18.75 18.75 14.832 18.75 10C18.75 5.16797 14.832 1.25 10 1.25ZM10 17.2656C5.98828 17.2656 2.73438 14.0117 2.73438 10C2.73438 5.98828 5.98828 2.73438 10 2.73438C14.0117 2.73438 17.2656 5.98828 17.2656 10C17.2656 14.0117 14.0117 17.2656 10 17.2656Z" fill="#E0E0E0"/>
</svg>
