<svg width="18" height="20" viewBox="0 0 18 20" fill="none" xmlns="http://www.w3.org/2000/svg">
<path d="M12.9291 5.53153V4.4601C12.9291 4.36189 12.8487 4.28153 12.7505 4.28153H4.17909C4.08088 4.28153 4.00052 4.36189 4.00052 4.4601V5.53153C4.00052 5.62974 4.08088 5.7101 4.17909 5.7101H12.7505C12.8487 5.7101 12.9291 5.62974 12.9291 5.53153ZM4.17909 7.49581C4.08088 7.49581 4.00052 7.57617 4.00052 7.67439V8.74582C4.00052 8.84403 4.08088 8.92439 4.17909 8.92439H8.28624C8.38445 8.92439 8.46481 8.84403 8.46481 8.74582V7.67439C8.46481 7.57617 8.38445 7.49581 8.28624 7.49581H4.17909ZM12.572 10.0851C9.90901 10.0851 7.75052 12.2436 7.75052 14.9065C7.75052 17.5695 9.90901 19.728 12.572 19.728C15.2349 19.728 17.3934 17.5695 17.3934 14.9065C17.3934 12.2436 15.2349 10.0851 12.572 10.0851ZM14.9715 17.3061C14.3309 17.9467 13.4782 18.2994 12.572 18.2994C11.6657 18.2994 10.813 17.9467 10.1724 17.3061C9.53177 16.6655 9.17909 15.8128 9.17909 14.9065C9.17909 14.0003 9.53177 13.1476 10.1724 12.507C10.813 11.8664 11.6657 11.5137 12.572 11.5137C13.4782 11.5137 14.3309 11.8664 14.9715 12.507C15.6121 13.1476 15.9648 14.0003 15.9648 14.9065C15.9648 15.8128 15.6121 16.6655 14.9715 17.3061ZM14.5586 13.2101H13.5697C13.5117 13.2101 13.4581 13.2369 13.4246 13.2838L12.0072 15.2436L11.4916 14.5315C11.4751 14.5085 11.4533 14.4898 11.428 14.477C11.4028 14.4642 11.3748 14.4576 11.3465 14.4579H10.3621C10.217 14.4579 10.1322 14.623 10.217 14.7414L11.8644 17.0204C11.9358 17.1186 12.0809 17.1186 12.1523 17.0204L14.7014 13.4936C14.7885 13.3753 14.7036 13.2101 14.5586 13.2101ZM7.39338 17.5851H2.21481V1.87081H14.7148V9.54939C14.7148 9.6476 14.7952 9.72796 14.8934 9.72796H16.1434C16.2416 9.72796 16.322 9.6476 16.322 9.54939V0.977958C16.322 0.582868 16.0028 0.263672 15.6077 0.263672H1.32195C0.926862 0.263672 0.607666 0.582868 0.607666 0.977958V18.478C0.607666 18.873 0.926862 19.1922 1.32195 19.1922H7.39338C7.49159 19.1922 7.57195 19.1119 7.57195 19.0137V17.7637C7.57195 17.6655 7.49159 17.5851 7.39338 17.5851Z" fill="#E0E0E0"/>
</svg>
