<svg width="14" height="14" viewBox="0 0 14 14" fill="none" xmlns="http://www.w3.org/2000/svg">
<path d="M13.2127 12.3535L9.1549 8.2957C9.78459 7.48164 10.1252 6.48633 10.1252 5.43945C10.1252 4.18633 9.63615 3.01133 8.75178 2.12539C7.8674 1.23945 6.68928 0.751953 5.43771 0.751953C4.18615 0.751953 3.00803 1.24102 2.12365 2.12539C1.23771 3.00977 0.750214 4.18633 0.750214 5.43945C0.750214 6.69102 1.23928 7.86914 2.12365 8.75352C3.00803 9.63945 4.18459 10.127 5.43771 10.127C6.48459 10.127 7.47834 9.78633 8.2924 9.1582L12.3502 13.2145C12.3621 13.2264 12.3762 13.2358 12.3918 13.2422C12.4073 13.2487 12.424 13.252 12.4408 13.252C12.4577 13.252 12.4743 13.2487 12.4899 13.2422C12.5054 13.2358 12.5196 13.2264 12.5315 13.2145L13.2127 12.5348C13.2246 12.5229 13.2341 12.5087 13.2405 12.4932C13.247 12.4776 13.2503 12.461 13.2503 12.4441C13.2503 12.4273 13.247 12.4106 13.2405 12.3951C13.2341 12.3795 13.2246 12.3654 13.2127 12.3535ZM7.91271 7.91445C7.25021 8.57539 6.37209 8.93945 5.43771 8.93945C4.50334 8.93945 3.62521 8.57539 2.96271 7.91445C2.30178 7.25195 1.93771 6.37383 1.93771 5.43945C1.93771 4.50508 2.30178 3.62539 2.96271 2.96445C3.62521 2.30352 4.50334 1.93945 5.43771 1.93945C6.37209 1.93945 7.25178 2.30195 7.91271 2.96445C8.57365 3.62695 8.93771 4.50508 8.93771 5.43945C8.93771 6.37383 8.57365 7.25352 7.91271 7.91445Z" fill="#BDBDBD"/>
</svg>
