<svg width="20" height="16" viewBox="0 0 20 16" fill="none" xmlns="http://www.w3.org/2000/svg">
<path d="M19.2417 0.231445H0.670279C0.27519 0.231445 -0.0440063 0.550642 -0.0440063 0.945731V15.2314C-0.0440063 15.6265 0.27519 15.9457 0.670279 15.9457H19.2417C19.6368 15.9457 19.956 15.6265 19.956 15.2314V0.945731C19.956 0.550642 19.6368 0.231445 19.2417 0.231445ZM18.3489 14.3386H1.56314V1.83859H18.3489V14.3386ZM3.64126 12.5015C3.71046 12.5707 3.8243 12.5707 3.89349 12.5015L7.74394 8.65109L10.2975 11.2069C10.3667 11.2761 10.4805 11.2761 10.5497 11.2069L17.1792 4.57296C17.2484 4.50377 17.2484 4.38993 17.1792 4.32073L16.3578 3.4993C16.3242 3.46607 16.2789 3.44743 16.2317 3.44743C16.1844 3.44743 16.1391 3.46607 16.1055 3.4993L10.4247 9.18234L7.87117 6.62654C7.83761 6.5933 7.79229 6.57466 7.74506 6.57466C7.69782 6.57466 7.6525 6.5933 7.61894 6.62654L2.82207 11.4256C2.78883 11.4592 2.77019 11.5045 2.77019 11.5518C2.77019 11.599 2.78883 11.6443 2.82207 11.6779L3.64126 12.5015Z" fill="#E0E0E0"/>
</svg>
