<svg width="20" height="18" viewBox="0 0 20 18" fill="none" xmlns="http://www.w3.org/2000/svg">
<path d="M8.92914 13.6429C8.92914 13.927 9.04202 14.1995 9.24295 14.4005C9.44388 14.6014 9.71641 14.7143 10.0006 14.7143C10.2847 14.7143 10.5572 14.6014 10.7582 14.4005C10.9591 14.1995 11.072 13.927 11.072 13.6429C11.072 13.3587 10.9591 13.0862 10.7582 12.8852C10.5572 12.6843 10.2847 12.5714 10.0006 12.5714C9.71641 12.5714 9.44388 12.6843 9.24295 12.8852C9.04202 13.0862 8.92914 13.3587 8.92914 13.6429ZM9.28628 6.85714V10.9643C9.28628 11.0625 9.36664 11.1429 9.46485 11.1429H10.5363C10.6345 11.1429 10.7149 11.0625 10.7149 10.9643V6.85714C10.7149 6.75893 10.6345 6.67857 10.5363 6.67857H9.46485C9.36664 6.67857 9.28628 6.75893 9.28628 6.85714ZM19.9046 16.6786L10.6189 0.607143C10.4805 0.368304 10.2416 0.25 10.0006 0.25C9.75949 0.25 9.51842 0.368304 9.38226 0.607143L0.0965478 16.6786C-0.178006 17.1563 0.165744 17.75 0.714851 17.75H19.2863C19.8354 17.75 20.1791 17.1563 19.9046 16.6786ZM2.41574 16.0558L10.0006 2.92634L17.5854 16.0558H2.41574Z" fill="#E0E0E0"/>
</svg>
