<svg width="36" height="36" viewBox="0 0 36 36" fill="none" xmlns="http://www.w3.org/2000/svg">
<path d="M31.9207 28.1042C31.1628 26.3089 30.0629 24.6781 28.6823 23.3028C27.3059 21.9235 25.6755 20.8238 23.881 20.0644C23.8649 20.0564 23.8488 20.0524 23.8328 20.0443C26.3359 18.2363 27.9631 15.2912 27.9631 11.9684C27.9631 6.46397 23.5033 2.00415 17.9988 2.00415C12.4944 2.00415 8.03456 6.46397 8.03456 11.9684C8.03456 15.2912 9.66179 18.2363 12.1649 20.0483C12.1488 20.0564 12.1328 20.0604 12.1167 20.0684C10.3167 20.8278 8.70152 21.9167 7.31536 23.3068C5.93607 24.6832 4.83636 26.3137 4.07697 28.1082C3.33094 29.865 2.92859 31.7485 2.8917 33.6568C2.89063 33.6997 2.89815 33.7424 2.91382 33.7823C2.9295 33.8222 2.953 33.8586 2.98296 33.8893C3.01291 33.92 3.04871 33.9444 3.08824 33.9611C3.12777 33.9777 3.17024 33.9863 3.21313 33.9863H5.62384C5.80063 33.9863 5.94126 33.8457 5.94527 33.6729C6.02563 30.5711 7.27117 27.6662 9.47295 25.4644C11.7511 23.1863 14.7765 21.9327 17.9988 21.9327C21.2212 21.9327 24.2466 23.1863 26.5247 25.4644C28.7265 27.6662 29.9721 30.5711 30.0524 33.6729C30.0564 33.8497 30.1971 33.9863 30.3738 33.9863H32.7846C32.8275 33.9863 32.8699 33.9777 32.9095 33.9611C32.949 33.9444 32.9848 33.92 33.0147 33.8893C33.0447 33.8586 33.0682 33.8222 33.0839 33.7823C33.0995 33.7424 33.1071 33.6997 33.106 33.6568C33.0658 31.7363 32.668 29.868 31.9207 28.1042ZM17.9988 18.8792C16.1546 18.8792 14.4189 18.16 13.1131 16.8542C11.8073 15.5483 11.0881 13.8126 11.0881 11.9684C11.0881 10.1242 11.8073 8.38853 13.1131 7.08272C14.4189 5.77692 16.1546 5.05772 17.9988 5.05772C19.843 5.05772 21.5788 5.77692 22.8846 7.08272C24.1904 8.38853 24.9096 10.1242 24.9096 11.9684C24.9096 13.8126 24.1904 15.5483 22.8846 16.8542C21.5788 18.16 19.843 18.8792 17.9988 18.8792Z" fill="black" fill-opacity="0.85"/>
</svg>
