<svg width="20" height="20" viewBox="0 0 20 20" fill="none" xmlns="http://www.w3.org/2000/svg">
<path d="M17.7338 15.6133C17.3127 14.6159 16.7017 13.7099 15.9347 12.9459C15.17 12.1796 14.2642 11.5687 13.2673 11.1468C13.2583 11.1423 13.2494 11.1401 13.2405 11.1356C14.6311 10.1311 15.5351 8.49498 15.5351 6.649C15.5351 3.59096 13.0575 1.11328 9.99942 1.11328C6.94138 1.11328 4.46371 3.59096 4.46371 6.649C4.46371 8.49498 5.36772 10.1311 6.75835 11.1378C6.74942 11.1423 6.74049 11.1445 6.73156 11.149C5.73156 11.5709 4.83424 12.1758 4.06415 12.9481C3.29788 13.7128 2.68693 14.6186 2.26504 15.6155C1.85058 16.5915 1.62706 17.6379 1.60656 18.6981C1.60597 18.7219 1.61015 18.7456 1.61885 18.7678C1.62756 18.79 1.64062 18.8102 1.65726 18.8273C1.6739 18.8443 1.69379 18.8579 1.71575 18.8671C1.73771 18.8764 1.7613 18.8811 1.78513 18.8811H3.12442C3.22263 18.8811 3.30076 18.803 3.30299 18.707C3.34763 16.9838 4.0396 15.37 5.26281 14.1468C6.52844 12.8811 8.20924 12.1847 9.99942 12.1847C11.7896 12.1847 13.4704 12.8811 14.736 14.1468C15.9592 15.37 16.6512 16.9838 16.6958 18.707C16.6981 18.8052 16.7762 18.8811 16.8744 18.8811H18.2137C18.2375 18.8811 18.2611 18.8764 18.2831 18.8671C18.305 18.8579 18.3249 18.8443 18.3416 18.8273C18.3582 18.8102 18.3713 18.79 18.38 18.7678C18.3887 18.7456 18.3929 18.7219 18.3923 18.6981C18.37 17.6311 18.149 16.5932 17.7338 15.6133ZM9.99942 10.4883C8.97487 10.4883 8.01058 10.0887 7.28513 9.36328C6.55969 8.63784 6.16013 7.67355 6.16013 6.649C6.16013 5.62444 6.55969 4.66016 7.28513 3.93471C8.01058 3.20926 8.97487 2.80971 9.99942 2.80971C11.024 2.80971 11.9883 3.20926 12.7137 3.93471C13.4392 4.66016 13.8387 5.62444 13.8387 6.649C13.8387 7.67355 13.4392 8.63784 12.7137 9.36328C11.9883 10.0887 11.024 10.4883 9.99942 10.4883Z" fill="#E0E0E0"/>
</svg>
