<?xml version="1.0" encoding="utf-8"?>
<!-- Svg Vector Icons : http://www.onlinewebfonts.com/icon -->
<!DOCTYPE svg PUBLIC "-//W3C//DTD SVG 1.1//EN" "http://www.w3.org/Graphics/SVG/1.1/DTD/svg11.dtd">
<svg version="1.1" xmlns="http://www.w3.org/2000/svg" xmlns:xlink="http://www.w3.org/1999/xlink" x="0px" y="0px" viewBox="0 0 1000 1000" enable-background="new 0 0 1000 1000" xml:space="preserve">
<metadata> Svg Vector Icons : http://www.onlinewebfonts.com/icon </metadata>
<g><g transform="translate(0.000000,511.000000) scale(0.100000,-0.100000)"><path d="M4630.7,4996.6c-1119.9-80.9-2169.3-549.6-3023.8-1348.1C1069.7,3148.7,594.8,2393.8,352.2,1665.8C-170.5,97.9,130.2-1638,1152.7-2934.2c147.3-188.7,616-657.4,804.7-804.7c725.9-572.4,1642.6-941.6,2569.6-1034.9c333.9-33.2,941.6-12.5,1265.1,41.5c987.2,165.9,1872.8,609.7,2606.9,1306.6c620.1,586.9,1128.2,1453.8,1341.8,2289.6c392,1528.5,51.8,3102.6-933.3,4328.3c-203.3,253-595.2,632.5-850.3,823.4C6997.1,4737.3,5819.1,5083.7,4630.7,4996.6z M5404.3,4102.7c1393.7-151.4,2592.4-987.2,3198-2227.4c557.9-1144.8,551.7-2449.3-18.7-3577.5c-192.9-379.5-389.9-655.4-707.2-983.1c-410.6-425.2-881.4-740.4-1420.6-954c-744.5-292.4-1671.6-348.4-2445.2-147.2c-966.5,250.9-1798.1,840-2345.6,1659.2C1208.7-1443,988.9-721.3,988.9,102.1c0,949.9,296.6,1796,889.7,2532.3c159.7,197,510.2,537.2,709.3,684.4C3394.6,3922.3,4427.5,4210.5,5404.3,4102.7z"/><path d="M4332.1,2868.7c-41.5-51.9-43.6-80.9-43.6-518.5v-462.5l197-1124.1c109.9-618,207.4-1140.7,219.8-1163.5c31.1-60.2,105.8-78.8,309-78.8c302.8,0,261.3-103.7,489.4,1205l194.9,1107.5v504c0,474.9-2.1,504-41.5,543.4c-39.4,39.4-68.4,41.5-661.6,41.5h-622.2L4332.1,2868.7z"/><path d="M4792.5-1233.6c-215.7-70.5-383.7-219.8-481.1-425.2c-45.6-97.5-53.9-145.2-53.9-302.8c0-159.7,8.3-203.2,56-304.9c232.3-497.8,858.6-599.4,1231.9-199.1c141,151.4,203.2,302.8,201.2,493.6c-2.1,300.7-161.8,553.8-433.4,686.5C5155.4-1206.6,4937.6-1185.9,4792.5-1233.6z"/></g></g>
</svg>