<svg xmlns="http://www.w3.org/2000/svg" width="19" height="19" viewBox="0 0 19 19">
    <path fill="#00AEEF" fill-rule="nonzero" d="M11.4 5.7h.95a.95.95 0 0 0 0-1.9h-.95a.95.95 0 0 0 0 1.9zm0 3.8h.95a.95.95 0 0 0 0-1.9h-.95a.95.95 0 0 0 0 1.9zM6.65 5.7h.95a.95.95 0 0 0 0-1.9h-.95a.95.95 0 0 0 0 1.9zm0 3.8h.95a.95.95 0 0 0 0-1.9h-.95a.95.95 0 0 0 0 1.9zm11.4 7.6h-.95V.95a.95.95 0 0 0-.95-.95H2.85a.95.95 0 0 0-.95.95V17.1H.95a.95.95 0 0 0 0 1.9h17.1a.95.95 0 0 0 0-1.9zm-7.6 0h-1.9v-3.8h1.9v3.8zm4.75 0h-2.85v-4.75a.95.95 0 0 0-.95-.95H7.6a.95.95 0 0 0-.95.95v4.75H3.8V1.9h11.4v15.2z"/>
</svg>
