<svg xmlns="http://www.w3.org/2000/svg" width="14" height="14" viewBox="0 0 14 14">
    <g fill="none" fill-rule="evenodd">
        <path d="M-1 0h15v15H-1z"/>
        <path fill="#65757D" fill-opacity=".5" fill-rule="nonzero" d="M10.042 2.083h2.5c.345 0 .625.28.625.625v10c0 .346-.28.625-.625.625H1.292a.625.625 0 0 1-.625-.625v-10c0-.345.28-.625.625-.625h2.5V.833h1.25v1.25h3.75V.833h1.25v1.25zm-1.25 1.25h-3.75v1.25h-1.25v-1.25H1.917v2.5h10v-2.5h-1.875v1.25h-1.25v-1.25zm3.125 3.75h-10v5h10v-5z"/>
    </g>
</svg>
