<svg xmlns="http://www.w3.org/2000/svg" width="24" height="24" viewBox="0 0 24 24">
    <path fill="#000000" fill-rule="nonzero" stroke="#000000" stroke-width=".8" d="M20.727 10.587H5.153l14.88-4.614c.214-.053.32-.266.267-.48l-.587-1.866a2.264 2.264 0 0 0-2.186-1.6c-.24 0-.454.026-.667.106L3.9 6.107A2.278 2.278 0 0 0 2.407 8.96l.586 1.867c0 .026.027.026.027.053v8.773a2.265 2.265 0 0 0 2.267 2.267h13.546a2.265 2.265 0 0 0 2.267-2.267V10.96c.027-.213-.16-.373-.373-.373zm-3.6.773l-2.4 2.693a.242.242 0 0 0-.08.187H11.18l2.56-2.907h3.387v.027zm-4.454 0l-2.4 2.693a.242.242 0 0 0-.08.187H6.727l2.56-2.907h3.386v.027zm-4.426 0l-2.4 2.693c-.054.054-.08.134-.107.187H3.793v-2.88h4.454zM17.1 2.853c.133-.026.293-.053.453-.053.64 0 1.227.427 1.414 1.04l.453 1.493-1.867.56a.388.388 0 0 0-.16-.24L14.22 3.76l2.88-.907zm-3.893 1.2L16.7 6.16 13.34 7.2a.388.388 0 0 0-.16-.24l-3.2-1.92 3.227-.987zm-4.24 1.334l3.493 2.106-3.387 1.04a.34.34 0 0 0-.186-.24l-3.2-1.92 3.28-.986zm-5.36 4.826L3.153 8.72c-.106-.373-.08-.8.107-1.147.187-.346.507-.613.88-.72l.587-.186L8.22 8.773l-4.613 1.44zm16.72 9.44a1.49 1.49 0 0 1-1.494 1.494H5.287a1.49 1.49 0 0 1-1.494-1.494V15.04h16.56v4.613h-.026zm0-5.386h-4.72l2.586-2.907h2.16v2.907h-.026z"/>
</svg>
