<svg xmlns="http://www.w3.org/2000/svg" width="14" height="17" viewBox="0 0 14 17">
    <path fill="#858585" fill-rule="nonzero" d="M4.546 7.143l8.435-3.753L11.783.7a1.17 1.17 0 0 0-1.542-.593L.724 4.341a1.17 1.17 0 0 0-.592 1.543l.892 2.007v7.135c0 .646.523 1.168 1.169 1.168h10.422c.646 0 1.164-.522 1.164-1.164V7.143H4.546zm7.414 7.817H2.855a.597.597 0 0 1-.596-.597V8.377h10.286v5.999c0 .32-.26.584-.585.584zM7.817 2.534l-.835 2.173-2.164.963.835-2.173 2.164-.963zM8.578 4l.836-2.172 1.271-.564.67 1.502-2.777 1.234zm-4.517.206l-.835 2.172-1.272.564-.67-1.502L4.06 4.205z"/>
</svg>
