<svg xmlns="http://www.w3.org/2000/svg" xmlns:xlink="http://www.w3.org/1999/xlink" width="30" height="40" viewBox="0 0 30 40">
    <defs>
        <path id="b" d="M2.5 12.5a2.5 2.5 0 1 0 5 0 2.5 2.5 0 0 0-5 0zM1.308 25.625h1.819v3.125c0 .69.56 1.25 1.25 1.25h1.25c.69 0 1.25-.56 1.25-1.25v-3.125h1.818a1.306 1.306 0 0 0 1.213-1.794l-2.556-6.4a1.875 1.875 0 0 0-1.744-1.181h-1.21c-.768 0-1.459.467-1.743 1.181l-2.56 6.4a1.306 1.306 0 0 0 1.213 1.794z"/>
        <filter id="a" width="450%" height="275%" x="-175%" y="-62.5%" filterUnits="objectBoundingBox">
            <feOffset dy="5" in="SourceAlpha" result="shadowOffsetOuter1"/>
            <feGaussianBlur in="shadowOffsetOuter1" result="shadowBlurOuter1" stdDeviation="5"/>
            <feColorMatrix in="shadowBlurOuter1" values="0 0 0 0 0.921568627 0 0 0 0 0.368627451 0 0 0 0 0.741176471 0 0 0 0.3 0"/>
        </filter>
    </defs>
    <g fill="none" fill-rule="nonzero" transform="translate(10 -5)">
        <use fill="#000" filter="url(#a)" xlink:href="#b"/>
        <use fill="#EB5EBD" xlink:href="#b"/>
    </g>
</svg>
