<svg xmlns="http://www.w3.org/2000/svg" width="52" height="52" viewBox="0 0 52 52">
    <defs>
        <filter id="a" width="120.7%" height="110.6%" x="-10.3%" y="-5.3%" filterUnits="objectBoundingBox">
            <feOffset in="SourceAlpha" result="shadowOffsetOuter1"/>
            <feGaussianBlur in="shadowOffsetOuter1" result="shadowBlurOuter1" stdDeviation="8"/>
            <feColorMatrix in="shadowBlurOuter1" result="shadowMatrixOuter1" values="0 0 0 0 0 0 0 0 0 0 0 0 0 0 0 0 0 0 0.08 0"/>
            <feMerge>
                <feMergeNode in="shadowMatrixOuter1"/>
                <feMergeNode in="SourceGraphic"/>
            </feMerge>
        </filter>
    </defs>
    <path fill="#00AEEF" fill-rule="nonzero" d="M132.34 43.46a1.2 1.2 0 1 0 0 2.4 1.2 1.2 0 0 0 0-2.4zm4.6 2.42a7.59 7.59 0 0 0-.46-2.43 4.94 4.94 0 0 0-1.16-1.77 4.7 4.7 0 0 0-1.77-1.15 7.3 7.3 0 0 0-2.43-.47c-1.06-.06-1.4-.06-4.12-.06s-3.06 0-4.12.06a7.3 7.3 0 0 0-2.43.47 4.78 4.78 0 0 0-1.77 1.15 4.7 4.7 0 0 0-1.15 1.77 7.3 7.3 0 0 0-.47 2.43c-.06 1.06-.06 1.4-.06 4.12s0 3.06.06 4.12a7.3 7.3 0 0 0 .47 2.43 4.7 4.7 0 0 0 1.15 1.77 4.78 4.78 0 0 0 1.77 1.15 7.3 7.3 0 0 0 2.43.47c1.06.06 1.4.06 4.12.06s3.06 0 4.12-.06a7.3 7.3 0 0 0 2.43-.47 4.7 4.7 0 0 0 1.77-1.15 4.85 4.85 0 0 0 1.16-1.77c.285-.78.44-1.6.46-2.43 0-1.06.06-1.4.06-4.12s0-3.06-.06-4.12zm-1.8 8.12a5.61 5.61 0 0 1-.34 1.86 3.06 3.06 0 0 1-.75 1.15 3.19 3.19 0 0 1-1.15.75 5.61 5.61 0 0 1-1.86.34c-1 .05-1.37.06-4 .06s-3 0-4-.06a5.73 5.73 0 0 1-1.94-.3 3.27 3.27 0 0 1-1.1-.75 3 3 0 0 1-.74-1.15 5.54 5.54 0 0 1-.4-1.9c0-1-.06-1.37-.06-4s0-3 .06-4a5.54 5.54 0 0 1 .35-1.9A3 3 0 0 1 120 43a3.14 3.14 0 0 1 1.1-.8 5.73 5.73 0 0 1 1.9-.34c1 0 1.37-.06 4-.06s3 0 4 .06a5.61 5.61 0 0 1 1.86.34 3.06 3.06 0 0 1 1.19.8c.328.307.584.683.75 1.1a5.61 5.61 0 0 1 .34 1.9c.05 1 .06 1.37.06 4s-.01 3-.06 4zM127 44.87a5.13 5.13 0 1 0 5.14 5.13 5.12 5.12 0 0 0-5.14-5.13zm0 8.46a3.33 3.33 0 1 1 0-6.66 3.33 3.33 0 0 1 0 6.66z" filter="url(#a)" transform="translate(-101 -24)"/>
</svg>
