<svg xmlns="http://www.w3.org/2000/svg" xmlns:xlink="http://www.w3.org/1999/xlink" width="28" height="40" viewBox="0 0 28 40">
    <defs>
        <path id="b" d="M6.875 12.5a2.5 2.5 0 1 1-5 0 2.5 2.5 0 0 1 5 0zm0 3.75h-5C.839 16.25 0 17.09 0 18.125v3.75c0 1.036.84 1.875 1.875 1.875v5c0 .69.56 1.25 1.25 1.25h2.5c.69 0 1.25-.56 1.25-1.25v-5c1.036 0 1.875-.84 1.875-1.875v-3.75c0-1.036-.84-1.875-1.875-1.875z"/>
        <filter id="a" width="500%" height="275%" x="-200%" y="-62.5%" filterUnits="objectBoundingBox">
            <feOffset dy="5" in="SourceAlpha" result="shadowOffsetOuter1"/>
            <feGaussianBlur in="shadowOffsetOuter1" result="shadowBlurOuter1" stdDeviation="5"/>
            <feColorMatrix in="shadowBlurOuter1" values="0 0 0 0 0.368627451 0 0 0 0 0.466666667 0 0 0 0 1 0 0 0 0.3 0"/>
        </filter>
    </defs>
    <g fill="none" fill-rule="nonzero" transform="translate(9 -5)">
        <use fill="#000" filter="url(#a)" xlink:href="#b"/>
        <use fill="#4880FF" xlink:href="#b"/>
    </g>
</svg>
