<svg width="70" height="12" viewBox="0 0 70 12" fill="none" xmlns="http://www.w3.org/2000/svg">
<path d="M29.5574 10.2042V6.64949L26.4975 1.61762C26.168 1.07223 25.6184 0.665046 25.0777 0.342567L26.6338 0.308387C27.489 0.290554 27.868 0.58034 28.3577 1.39917L30.6223 5.19016L32.8884 1.88512C33.3752 1.17477 32.9229 0.480772 32.3642 0.342567L35.6937 0.308387L31.2993 6.64949V10.228C31.2993 10.6262 31.5734 11.2563 32.2279 11.5298H28.7636C29.3567 11.3336 29.5574 10.7674 29.5574 10.2042Z" fill="#C60808"/>
<path fill-rule="evenodd" clip-rule="evenodd" d="M48.5922 0.342567C49.0505 0.614519 49.404 0.92511 49.404 2.01886V10.2042C49.404 10.7005 49.2332 11.4763 48.5922 11.5298H52.058C51.5143 11.35 51.2657 10.7273 51.2657 10.2086L51.2627 1.65032C52.0101 1.46456 53.1004 1.46307 53.7909 1.91632C54.9277 2.66085 54.5907 4.20043 53.6231 4.96279C53.036 5.42496 52.2452 5.72663 51.5338 5.84403L54.9816 10.5059C55.5297 11.2474 56.0375 11.5298 56.993 11.5298H60.5771C60.029 11.1687 59.8927 10.5965 60.0364 10.2042L61.1013 7.30336H65.2261L66.291 9.98722C66.3211 10.0631 66.3517 10.1362 66.3812 10.2067C66.6286 10.7976 66.7995 11.2058 65.9016 11.5298H69.4857C69.4632 11.5179 69.4408 11.5045 69.4183 11.4882C68.9195 11.1196 68.4013 10.4969 68.1677 9.95304L64.1612 0.44362L61.5072 0.476314C61.8083 0.676935 62.0958 1.15545 61.9131 1.61762L58.7169 9.68406C58.5978 9.98689 58.2793 10.5602 57.9416 10.9879C57.9214 10.973 57.9012 10.958 57.8812 10.9428C56.6184 9.9872 55.5697 8.61647 54.5756 7.31711C54.2679 6.91501 53.9655 6.51973 53.6636 6.14571C55.5013 5.68799 57.0455 3.73083 56.03 1.83459C55.3845 0.630866 53.5587 0.357428 52.3276 0.308387L48.5922 0.342567ZM64.7019 6.11153H61.5072L63.0963 2.01886L64.7019 6.11153Z" fill="#C60808"/>
<path fill-rule="evenodd" clip-rule="evenodd" d="M37.3681 1.59979C36.1041 2.7307 35.2623 4.20934 35.1635 5.90496C34.9508 9.59935 38.132 11.9325 41.6786 11.9325C45.0411 11.9325 47.6621 9.31551 47.6621 6.01196C47.5678 3.51089 46.2243 1.54926 43.8084 0.720031C43.076 0.467398 42.2747 0.342567 41.4076 0.342567C39.9847 0.342567 38.46 0.62195 37.3681 1.59979ZM41.6786 10.6411C39.9577 10.6411 38.2848 9.5191 37.6213 7.94089C36.498 5.26446 38.0227 1.49874 41.3881 1.52697C43.7949 1.54778 45.4874 3.77838 45.6551 6.03276C45.8349 8.47736 44.1529 10.6411 41.6786 10.6411Z" fill="#C60808"/>
<path fill-rule="evenodd" clip-rule="evenodd" d="M20.1082 1.61762L16.9135 9.68406C16.8241 9.91036 16.1393 11.1268 15.6527 11.4506C15.1004 11.1415 14.8363 10.3503 14.7657 9.81929L13.7009 1.78406C13.6245 1.19855 13.957 0.675449 14.3778 0.44362H11.3179L8.24159 8.62746L4.65749 0.44362L1.7339 0.476314C2.30005 1.03657 2.42137 1.34121 2.25662 2.1541L1.19172 9.81929C1.11534 10.3736 0.824775 11.2905 0.263123 11.5298H3.32151C2.72391 11.3812 2.47079 10.2235 2.52771 9.81929L3.5926 2.28784L6.92357 9.98722C7.18119 10.5846 7.79825 11.3247 8.37638 11.6635L12.1117 2.28784L13.0418 9.85199C13.0823 10.176 13.0418 11.451 12.248 11.5298H18.7722C18.2255 11.1687 18.0877 10.5965 18.2315 10.2042L19.2964 7.30336H23.4212L24.4861 9.98722C24.516 10.0626 24.5466 10.1353 24.5761 10.2054C24.8249 10.7971 24.9967 11.2056 24.0982 11.5298H27.6808C27.6706 11.5244 27.6604 11.5187 27.6502 11.5125C27.6427 11.508 27.6352 11.5032 27.6277 11.4981L27.6134 11.4882C27.1161 11.1196 26.5979 10.4969 26.3627 9.95304L22.3563 0.44362L19.7023 0.476314C20.0048 0.676935 20.2909 1.15545 20.1082 1.61762ZM22.897 6.11153H19.7023L21.2914 2.01886L22.897 6.11153Z" fill="#C60808"/>
</svg>
