<svg width="16" height="16" viewBox="0 0 16 16" fill="none" xmlns="http://www.w3.org/2000/svg">
<path d="M4.71415 8.57227H7.42843V11.2866C7.42843 11.3651 7.49272 11.4294 7.57129 11.4294H8.42843C8.507 11.4294 8.57129 11.3651 8.57129 11.2866V8.57227H11.2856C11.3641 8.57227 11.4284 8.50798 11.4284 8.42941V7.57227C11.4284 7.49369 11.3641 7.42941 11.2856 7.42941H8.57129V4.71512C8.57129 4.63655 8.507 4.57227 8.42843 4.57227H7.57129C7.49272 4.57227 7.42843 4.63655 7.42843 4.71512V7.42941H4.71415C4.63557 7.42941 4.57129 7.49369 4.57129 7.57227V8.42941C4.57129 8.50798 4.63557 8.57227 4.71415 8.57227Z" fill="#9E9E9E"/>
<path d="M14.5717 0.857422H1.42882C1.11275 0.857422 0.857391 1.11278 0.857391 1.42885V14.5717C0.857391 14.8878 1.11275 15.1431 1.42882 15.1431H14.5717C14.8878 15.1431 15.1431 14.8878 15.1431 14.5717V1.42885C15.1431 1.11278 14.8878 0.857422 14.5717 0.857422ZM13.8574 13.8574H2.14311V2.14314H13.8574V13.8574Z" fill="#9E9E9E"/>
</svg>
