<svg xmlns="http://www.w3.org/2000/svg" width="38" height="38" viewBox="0 0 38 38">
    <g fill="none" fill-rule="evenodd">
        <circle cx="19" cy="19" r="19" fill="#D8F2FC"/>
        <g fill-rule="nonzero">
            <g fill="#A200D2" fill-opacity=".5">
                <path d="M28.615 14.294c0 2.208-1.758 3.987-3.907 3.987-2.15 0-3.908-1.78-3.908-3.987s1.758-4.013 3.908-4.013c2.149 0 3.907 1.756 3.907 4.013zM19 14.55c0 2.496-1.871 4.45-4.34 4.45-2.467 0-4.66-1.954-4.66-4.45 0-2.495 2.032-4.55 4.5-4.55s4.5 2.006 4.5 4.55z"/>
            </g>
            <path fill="#3095CE" d="M29.455 18.388L27.945 18c-1.898 2.424-4.673 2.473-6.67 0l-1.51.388a2.994 2.994 0 0 0-1.265.727l1.266.34a3.16 3.16 0 0 1 2.337 3.054V26H31.5v-4.945c0-1.261-.828-2.328-2.045-2.667z"/>
            <path fill="#00AEEF" d="M20.11 19.513L18.159 19c-2.147 2.565-5.22 2.565-7.366 0l-1.952.513c-1.365.373-2.341 1.539-2.341 2.938V28h16v-5.55c0-1.398-.976-2.564-2.39-2.937z"/>
        </g>
    </g>
</svg>
