<svg xmlns="http://www.w3.org/2000/svg" width="38" height="38" viewBox="0 0 38 38">
    <g fill="none" fill-rule="evenodd">
        <circle cx="19" cy="19" r="19" fill="#D8F2FC"/>
        <g fill-rule="nonzero">
            <path fill="#00AEEF" d="M27.264 30H10.735a.747.747 0 0 1-.735-.759V19h18v10.241c0 .42-.33.759-.736.759z"/>
            <path fill="#BC78E6" d="M28 21H10v-4h17.265c.406 0 .735.318.735.71V21z"/>
            <path fill="#9756BF" d="M21 17l-3.936 4H11l3.936-4z"/>
            <path fill="#BC78E6" d="M24.23 6.069L8.942 13.323c-.376.178-.545.647-.377 1.047L10.089 18l15.97-7.577c.375-.178.544-.648.376-1.048l-1.221-2.904c-.168-.4-.608-.58-.984-.402z"/>
            <path fill="#9756BF" d="M28 17.71V21h-6l4.1-4h1.06c.464 0 .84.318.84.71zM18.51 8.73l-1.01 5.776L12.204 17l1.173-5.761zM25.994 10.417l-4.437 2.153 1.558-6.015.955-.51c.448-.167.974 0 1.174.373l1.2 3.025c.2.372-.002.808-.45.974z"/>
        </g>
    </g>
</svg>
