<svg xmlns="http://www.w3.org/2000/svg" width="51" height="49" viewBox="0 0 51 49">
    <defs>
        <filter id="a" width="120.7%" height="110.6%" x="-10.3%" y="-5.3%" filterUnits="objectBoundingBox">
            <feOffset in="SourceAlpha" result="shadowOffsetOuter1"/>
            <feGaussianBlur in="shadowOffsetOuter1" result="shadowBlurOuter1" stdDeviation="8"/>
            <feColorMatrix in="shadowBlurOuter1" result="shadowMatrixOuter1" values="0 0 0 0 0 0 0 0 0 0 0 0 0 0 0 0 0 0 0.08 0"/>
            <feMerge>
                <feMergeNode in="shadowMatrixOuter1"/>
                <feMergeNode in="SourceGraphic"/>
            </feMerge>
        </filter>
    </defs>
    <path fill="#00AEEF" fill-rule="nonzero" d="M77 43.157a9.302 9.302 0 0 1-2.596.707 4.562 4.562 0 0 0 1.991-2.51 9.004 9.004 0 0 1-2.871 1.106 4.494 4.494 0 0 0-5.44-.925 4.541 4.541 0 0 0-2.26 5.06 12.783 12.783 0 0 1-9.295-4.743 4.617 4.617 0 0 0-.605 2.289 4.528 4.528 0 0 0 2.002 3.77 4.438 4.438 0 0 1-2.046-.564v.055a4.527 4.527 0 0 0 3.63 4.422c-.392.12-.8.184-1.21.188a5.364 5.364 0 0 1-.847-.077 4.524 4.524 0 0 0 4.213 3.14A9.013 9.013 0 0 1 55 56.954a12.68 12.68 0 0 0 6.919 2.045 12.716 12.716 0 0 0 9.136-3.74 12.847 12.847 0 0 0 3.745-9.173V45.5a9.3 9.3 0 0 0 2.2-2.343z" filter="url(#a)" transform="translate(-40 -26)"/>
</svg>
