<svg xmlns="http://www.w3.org/2000/svg" width="18" height="20" viewBox="0 0 18 20">
    <path fill="#F7B500" stroke="#F7B500" stroke-width=".5" d="M16.43 10.22c-.64-.624-1.547-.728-2.513-.267l-1.318.712v-6.17c0-1.003-.836-1.819-1.864-1.819-.27 0-.527.058-.76.16-.082-.928-.882-1.66-1.855-1.66-.874 0-1.607.59-1.808 1.382-.245-.115-.518-.182-.808-.182-1.028 0-1.864.816-1.864 1.818v.138c-.23-.1-.484-.156-.751-.156-1.028 0-1.864.816-1.864 1.818v6.262c0 3.621 3.021 6.567 6.735 6.567 1.703 0 3.378-.718 4.716-2.022l3.953-4.01c.353-.343.546-.8.546-1.285 0-.486-.194-.942-.546-1.286zm-.796 1.811l-3.947 4.005c-1.128 1.098-2.522 1.702-3.927 1.702-3.1 0-5.622-2.46-5.622-5.482V5.994c0-.404.337-.732.75-.732.415 0 .752.328.752.732v4.554c0 .3.25.543.557.543.307 0 .556-.244.556-.543V4.194c0-.404.337-.732.751-.732s.752.328.752.732v6.354c0 .3.249.543.556.543.307 0 .556-.244.556-.543V2.994c0-.404.338-.733.752-.733s.751.33.751.733v7.554c0 .3.25.543.556.543.307 0 .557-.244.557-.543V4.494c0-.404.337-.732.75-.732.416 0 .752.328.752.732v6.773l-1.021.552c-.269.145-.366.475-.216.737.148.262.486.357.756.211l3.425-1.853c.35-.165.843-.287 1.212.073.293.286.293.75-.008 1.044z"/>
</svg>
