<svg xmlns="http://www.w3.org/2000/svg" width="14" height="13" viewBox="0 0 14 13">
    <g fill="none" fill-rule="evenodd">
        <path d="M0 0L16 0 16 15.205 0 15.205z" transform="translate(-1 -.963)"/>
        <path fill="#00AEEF" fill-rule="nonzero" d="M8 5.702c-1.105 0-2 .85-2 1.9 0 1.05.895 1.901 2 1.901s2-.85 2-1.9c0-1.05-.895-1.901-2-1.901zm0-1.267c1.84 0 3.333 1.418 3.333 3.168 0 1.75-1.492 3.167-3.333 3.167-1.84 0-3.333-1.418-3.333-3.167 0-1.75 1.492-3.168 3.333-3.168zm4.333-.159c0 .438-.373.792-.833.792-.46 0-.833-.354-.833-.792 0-.437.373-.791.833-.791.46 0 .833.354.833.791zM8 2.534c-1.65 0-1.919.005-2.686.037-.523.023-.873.09-1.199.21-.289.107-.498.234-.72.446-.208.191-.369.425-.469.684-.127.31-.197.643-.22 1.139-.035.7-.04.944-.04 2.553 0 1.567.005 1.823.04 2.552.024.496.094.83.22 1.139.113.275.247.474.468.684.225.213.433.34.72.445.33.121.68.188 1.2.211.736.033.993.037 2.686.037 1.65 0 1.919-.004 2.686-.037.521-.023.873-.09 1.198-.21.289-.107.499-.234.72-.444.225-.214.359-.412.47-.684.126-.313.197-.647.22-1.14.035-.7.04-.945.04-2.553 0-1.568-.005-1.824-.04-2.553-.024-.495-.094-.83-.22-1.14-.101-.258-.261-.491-.47-.683-.2-.199-.447-.351-.72-.446-.326-.12-.677-.187-1.198-.21-.736-.033-.993-.037-2.686-.037zm0-1.267c1.811 0 2.037.006 2.748.038.71.032 1.193.138 1.619.295.44.16.81.379 1.181.73.339.317.601.7.769 1.123.164.403.276.863.31 1.538.031.675.04.89.04 2.612 0 1.72-.007 1.936-.04 2.611-.034.675-.146 1.134-.31 1.538-.167.423-.43.807-.769 1.123-.333.322-.736.571-1.181.73-.425.157-.909.263-1.619.295-.71.03-.937.038-2.748.038-1.811 0-2.037-.006-2.748-.038-.71-.032-1.193-.138-1.619-.295-.445-.158-.848-.408-1.181-.73-.34-.317-.601-.7-.769-1.123-.165-.403-.276-.863-.31-1.538-.031-.675-.04-.89-.04-2.611 0-1.722.007-1.937.04-2.612.034-.675.145-1.134.31-1.538.167-.423.43-.806.769-1.123.333-.322.736-.571 1.181-.73.426-.157.908-.263 1.619-.295.71-.03.937-.038 2.748-.038z" transform="translate(-1 -.963)"/>
    </g>
</svg>
