<svg xmlns="http://www.w3.org/2000/svg" width="14" height="11" viewBox="0 0 14 11">
    <g fill="none" fill-rule="evenodd">
        <path d="M0 0L16 0 16 15.205 0 15.205z" transform="translate(-1 -1.963)"/>
        <path fill="#00AEEF" fill-rule="nonzero" d="M14.775 3.583c-.51.214-1.049.355-1.602.417.583-.33 1.019-.852 1.227-1.466-.547.31-1.146.526-1.77.643-.863-.877-2.24-1.093-3.353-.527-1.114.567-1.688 1.775-1.398 2.944-2.242-.107-4.331-1.114-5.747-2.769-.248.404-.378.864-.377 1.332 0 .919.492 1.73 1.24 2.206-.443-.014-.876-.127-1.263-.332v.033c0 1.262.936 2.348 2.237 2.599-.411.105-.842.12-1.26.045.364 1.08 1.411 1.82 2.604 1.84-1.168.872-2.653 1.267-4.127 1.098 1.274.779 2.758 1.192 4.273 1.191 5.129 0 7.934-4.038 7.934-7.54 0-.113-.004-.229-.009-.341.546-.375 1.017-.84 1.391-1.372z" transform="translate(-1 -1.963)"/>
    </g>
</svg>
