<svg xmlns="http://www.w3.org/2000/svg" width="24" height="24" viewBox="0 0 24 24">
    <g fill="#FFF">
        <path stroke="#FFF" stroke-width=".5" d="M8.554 1.95l.403.404-8.95 16.04L1.531 20l4.388-2.424.443.828c.303.566.81.976 1.427 1.152.215.062.434.093.652.093.405 0 .805-.106 1.167-.314l3.044-1.749c1.123-.645 1.513-2.084.87-3.208l-.436-.762 4.595-2.539.38.382 1.11-1.11L9.663.843 8.553 1.95zm3.317 14.276l-3.044 1.749c-.185.106-.4.133-.606.074-.206-.06-.375-.196-.476-.384l-.453-.847-.05.027 4.471-2.47.448.782c.214.375.084.854-.29 1.07zm4.655-6.303L2.074 17.908 10.11 3.507l6.416 6.416z" transform="rotate(15 .105 22.884)"/>
        <path d="M15.803 2.005L17.372 2.005 17.372 4.805 15.803 4.805z" transform="rotate(15 .105 22.884) rotate(45 16.588 3.405)"/>
        <path d="M17.313 5.386L19.794 5.386 19.794 6.955 17.313 6.955z" transform="rotate(15 .105 22.884) rotate(159.171 18.554 6.17)"/>
        <path d="M13.04 0.198L14.608 0.198 14.608 2.68 13.04 2.68z" transform="rotate(15 .105 22.884) rotate(20.829 13.824 1.439)"/>
    </g>
</svg>
