<svg xmlns="http://www.w3.org/2000/svg" width="15" height="15" viewBox="0 0 15 15">
    <path fill-opacity=".6" d="M12.75 1.5h-1.5V.75c0-.414-.336-.75-.75-.75s-.75.336-.75.75v.75h-4.5V.75C5.25.336 4.914 0 4.5 0s-.75.336-.75.75v.75h-1.5C1.007 1.5 0 2.507 0 3.75v9C0 13.993 1.007 15 2.25 15h10.5c1.243 0 2.25-1.007 2.25-2.25v-9c0-1.243-1.007-2.25-2.25-2.25zm.75 11.25c0 .414-.336.75-.75.75H2.25c-.414 0-.75-.336-.75-.75V7.5h12v5.25zm0-6.75h-12V3.75c0-.414.336-.75.75-.75h1.5v.75c0 .414.336.75.75.75s.75-.336.75-.75V3h4.5v.75c0 .414.336.75.75.75s.75-.336.75-.75V3h1.5c.414 0 .75.336.75.75V6z"/>
</svg>
