<svg xmlns="http://www.w3.org/2000/svg" width="19" height="13" viewBox="0 0 19 13">
    <path fill="#00AEEF" d="M6.728 10L4.726 7.13c-.084.01-.21.014-.378.014H2.136V10H.316V.2h4.032c.85 0 1.589.14 2.219.42.63.28 1.113.681 1.449 1.204.336.523.504 1.143.504 1.862 0 .737-.18 1.372-.539 1.904-.36.532-.875.929-1.547 1.19L8.688 10h-1.96zm-.042-6.314c0-.625-.205-1.106-.616-1.442-.41-.336-1.013-.504-1.806-.504H2.136v3.906h2.128c.793 0 1.395-.17 1.806-.511.41-.34.616-.824.616-1.449zm7.84-1.246c.728 0 1.379.159 1.953.476.574.317 1.024.765 1.351 1.344.327.579.49 1.246.49 2.002 0 .756-.163 1.426-.49 2.009-.327.583-.777 1.034-1.351 1.351-.574.317-1.225.476-1.953.476-1.008 0-1.806-.336-2.394-1.008v3.626h-1.75V2.524h1.666v.98c.29-.355.646-.62 1.071-.798.425-.177.894-.266 1.407-.266zM14.33 8.6c.644 0 1.174-.215 1.589-.644.415-.43.623-.994.623-1.694s-.208-1.265-.623-1.694c-.415-.43-.945-.644-1.589-.644-.42 0-.798.096-1.134.287-.336.191-.602.464-.798.819-.196.355-.294.765-.294 1.232 0 .467.098.877.294 1.232.196.355.462.628.798.819.336.191.714.287 1.134.287z"/>
</svg>
