<svg xmlns="http://www.w3.org/2000/svg" width="35" height="35" viewBox="0 0 35 35">
    <g fill="none" fill-rule="evenodd">
        <path d="M0 0L40 0 40 40 0 40z" transform="translate(-3 -3)"/>
        <path fill="#00AEEF" fill-rule="nonzero" d="M30.052 27.695l7.138 7.137-2.358 2.358-7.137-7.138c-2.655 2.128-5.958 3.286-9.362 3.281-8.28 0-15-6.72-15-15 0-8.28 6.72-15 15-15 8.28 0 15 6.72 15 15 .005 3.404-1.153 6.707-3.281 9.362zm-3.344-1.237c2.116-2.175 3.297-5.09 3.292-8.125 0-6.446-5.222-11.666-11.667-11.666-6.446 0-11.666 5.22-11.666 11.666C6.667 24.778 11.887 30 18.333 30c3.034.005 5.95-1.176 8.125-3.292l.25-.25zm-10.041-9.791v-5H20v5h5V20h-5v5h-3.333v-5h-5v-3.333h5z" transform="translate(-3 -3)"/>
    </g>
</svg>
